<svg width="1022" height="402" viewBox="0 0 1022 402" fill="none" xmlns="http://www.w3.org/2000/svg">
<path d="M22.2188 112.406H93.9375C121.875 112.406 142.594 116.578 156.094 124.922C169.688 133.172 176.484 146.062 176.484 163.594C176.484 175.125 173.531 184.969 167.625 193.125C161.719 201.281 153.938 206.531 144.281 208.875V210.281C157.031 213.656 166.266 219.281 171.984 227.156C177.703 235.031 180.562 245.25 180.562 257.812C180.562 276.469 173.531 291.188 159.469 301.969C145.5 312.656 126.422 318 102.234 318H22.2188V112.406ZM77.7656 191.297H94.5C102.469 191.297 108.609 189.656 112.922 186.375C117.328 183.094 119.531 178.219 119.531 171.75C119.531 160.219 110.812 154.453 93.375 154.453H77.7656V191.297ZM77.7656 231.938V275.109H97.3125C114.656 275.109 123.328 267.797 123.328 253.172C123.328 246.328 120.984 241.078 116.297 237.422C111.703 233.766 105 231.938 96.1875 231.938H77.7656Z" fill="white"/>
<path d="M261.721 18.7251C254.156 23.7263 248.988 31.3738 247.178 40.2623L199.094 275.925L198.82 277.249L220.213 342.259L265.364 290.826L313.715 53.8383C315.529 44.947 313.773 35.8905 308.772 28.3251C298.446 12.7052 277.341 8.39907 261.721 18.7251ZM210.108 272.967L245.563 99.1974L292.112 108.695L256.656 282.464L210.108 272.967ZM247.602 89.2035L251.332 70.9261L297.88 80.4238L294.151 98.7012L247.602 89.2035ZM211.687 283.699L251.005 291.721L224.327 322.113L211.687 283.699ZM303.721 51.7992L299.919 70.4299L253.371 60.9322L257.172 42.3015C258.441 36.0818 262.054 30.7342 267.347 27.235C278.274 20.0116 293.038 23.0241 300.262 33.9509C303.761 39.244 304.99 45.5795 303.721 51.7992Z" fill="white"/>
<path d="M478.141 237.984C478.141 264.047 471.109 284.391 457.047 299.016C443.078 313.547 423.484 320.812 398.266 320.812C374.078 320.812 354.812 313.359 340.469 298.453C326.219 283.547 319.094 263.391 319.094 237.984C319.094 212.016 326.078 191.859 340.047 177.516C354.109 163.078 373.797 155.859 399.109 155.859C414.766 155.859 428.594 159.188 440.594 165.844C452.594 172.5 461.828 182.062 468.297 194.531C474.859 206.906 478.141 221.391 478.141 237.984ZM374.922 237.984C374.922 251.672 376.75 262.125 380.406 269.344C384.062 276.469 390.203 280.031 398.828 280.031C407.359 280.031 413.359 276.469 416.828 269.344C420.391 262.125 422.172 251.672 422.172 237.984C422.172 224.391 420.391 214.125 416.828 207.188C413.266 200.25 407.172 196.781 398.547 196.781C390.109 196.781 384.062 200.25 380.406 207.188C376.75 214.031 374.922 224.297 374.922 237.984ZM659.969 158.672V185.25L638.172 193.266C641.172 198.703 642.672 205.031 642.672 212.25C642.672 229.406 636.625 242.719 624.531 252.188C612.531 261.656 594.578 266.391 570.672 266.391C564.766 266.391 560.078 266.016 556.609 265.266C555.297 267.703 554.641 270 554.641 272.156C554.641 274.875 556.844 276.984 561.25 278.484C565.656 279.891 571.422 280.594 578.547 280.594H604.984C640.703 280.594 658.562 295.641 658.562 325.734C658.562 345.141 650.266 360.234 633.672 371.016C617.172 381.797 593.969 387.188 564.062 387.188C541.469 387.188 524.031 383.391 511.75 375.797C499.562 368.297 493.469 357.469 493.469 343.312C493.469 324.281 505.281 312 528.906 306.469C524.031 304.406 519.766 301.078 516.109 296.484C512.547 291.891 510.766 287.344 510.766 282.844C510.766 277.875 512.125 273.516 514.844 269.766C517.562 265.922 523.234 261.375 531.859 256.125C523.609 252.469 517.094 246.75 512.312 238.969C507.625 231.188 505.281 221.719 505.281 210.562C505.281 193.219 511.188 179.766 523 170.203C534.812 160.641 551.688 155.859 573.625 155.859C576.531 155.859 581.547 156.188 588.672 156.844C595.797 157.5 601.047 158.109 604.422 158.672H659.969ZM539.875 337.828C539.875 342.328 542.312 345.938 547.188 348.656C552.062 351.469 558.578 352.875 566.734 352.875C580.047 352.875 590.688 351.188 598.656 347.812C606.719 344.531 610.75 340.266 610.75 335.016C610.75 330.797 608.312 327.797 603.438 326.016C598.562 324.328 591.578 323.484 582.484 323.484H560.969C555.062 323.484 550.047 324.844 545.922 327.562C541.891 330.375 539.875 333.797 539.875 337.828ZM557.172 210.844C557.172 227.156 562.844 235.312 574.188 235.312C579.438 235.312 583.469 233.297 586.281 229.266C589.188 225.234 590.641 219.188 590.641 211.125C590.641 194.625 585.156 186.375 574.188 186.375C562.844 186.375 557.172 194.531 557.172 210.844ZM761.219 320.812C734.688 320.812 714.062 313.781 699.344 299.719C684.719 285.562 677.406 265.453 677.406 239.391C677.406 212.484 684.203 191.859 697.797 177.516C711.391 163.078 730.797 155.859 756.016 155.859C780.016 155.859 798.531 162.141 811.562 174.703C824.688 187.172 831.25 205.172 831.25 228.703V253.172H732.953C733.328 262.078 736.562 269.062 742.656 274.125C748.844 279.188 757.234 281.719 767.828 281.719C777.484 281.719 786.344 280.828 794.406 279.047C802.562 277.172 811.375 274.031 820.844 269.625V309.141C812.219 313.547 803.312 316.594 794.125 318.281C784.938 319.969 773.969 320.812 761.219 320.812ZM757.984 193.266C751.516 193.266 746.078 195.328 741.672 199.453C737.359 203.484 734.828 209.859 734.078 218.578H781.328C781.141 210.891 778.938 204.75 774.719 200.156C770.594 195.562 765.016 193.266 757.984 193.266ZM939.25 320.812C912.719 320.812 892.094 313.781 877.375 299.719C862.75 285.562 855.438 265.453 855.438 239.391C855.438 212.484 862.234 191.859 875.828 177.516C889.422 163.078 908.828 155.859 934.047 155.859C958.047 155.859 976.562 162.141 989.594 174.703C1002.72 187.172 1009.28 205.172 1009.28 228.703V253.172H910.984C911.359 262.078 914.594 269.062 920.688 274.125C926.875 279.188 935.266 281.719 945.859 281.719C955.516 281.719 964.375 280.828 972.438 279.047C980.594 277.172 989.406 274.031 998.875 269.625V309.141C990.25 313.547 981.344 316.594 972.156 318.281C962.969 319.969 952 320.812 939.25 320.812ZM936.016 193.266C929.547 193.266 924.109 195.328 919.703 199.453C915.391 203.484 912.859 209.859 912.109 218.578H959.359C959.172 210.891 956.969 204.75 952.75 200.156C948.625 195.562 943.047 193.266 936.016 193.266Z" fill="white"/>
</svg>
